<?xml version="1.0" standalone="no"?><!DOCTYPE svg PUBLIC "-//W3C//DTD SVG 1.1//EN" "http://www.w3.org/Graphics/SVG/1.1/DTD/svg11.dtd"><svg t="1765846910550" class="icon" viewBox="0 0 1024 1024" version="1.1" xmlns="http://www.w3.org/2000/svg" p-id="13370" width="256" height="256" xmlns:xlink="http://www.w3.org/1999/xlink"><path d="M469.333333 138.666667v277.333333a53.393333 53.393333 0 0 1-53.333333 53.333333H138.666667a53.393333 53.393333 0 0 1-53.333334-53.333333V138.666667a53.393333 53.393333 0 0 1 53.333334-53.333334h277.333333a53.393333 53.393333 0 0 1 53.333333 53.333334z m416-53.333334H608a53.393333 53.393333 0 0 0-53.333333 53.333334v277.333333a53.393333 53.393333 0 0 0 53.333333 53.333333h277.333333a53.393333 53.393333 0 0 0 53.333334-53.333333V138.666667a53.393333 53.393333 0 0 0-53.333334-53.333334zM416 554.666667H138.666667a53.393333 53.393333 0 0 0-53.333334 53.333333v277.333333a53.393333 53.393333 0 0 0 53.333334 53.333334h277.333333a53.393333 53.393333 0 0 0 53.333333-53.333334V608a53.393333 53.393333 0 0 0-53.333333-53.333333z m469.333333 0H608a53.393333 53.393333 0 0 0-53.333333 53.333333v277.333333a53.393333 53.393333 0 0 0 53.333333 53.333334h277.333333a53.393333 53.393333 0 0 0 53.333334-53.333334V608a53.393333 53.393333 0 0 0-53.333334-53.333333z" fill="currentColor" p-id="13371"></path></svg>