<?xml version="1.0" standalone="no"?><!DOCTYPE svg PUBLIC "-//W3C//DTD SVG 1.1//EN" "http://www.w3.org/Graphics/SVG/1.1/DTD/svg11.dtd"><svg t="1757494520191" class="icon" viewBox="0 0 1024 1024" version="1.1" xmlns="http://www.w3.org/2000/svg" p-id="16307" xmlns:xlink="http://www.w3.org/1999/xlink" width="256" height="256"><path d="M303.36 254.293333c-258.986667 86.613333-258.986667 227.84 0 314.026667l114.346667 37.973333 37.973333 114.346667c86.186667 258.986667 227.84 258.986667 314.026667 0l128.426666-384.853333c57.173333-172.8-36.693333-267.093333-209.493333-209.493334l-385.28 128z m236.8 264.533334c-6.4 6.4-14.506667 9.386667-22.613333 9.386666s-16.213333-2.986667-22.613334-9.386666a32.170667 32.170667 0 0 1 0-45.226667l162.133334-162.986667c12.373333-12.373333 32.853333-12.373333 45.226666 0 12.373333 12.373333 12.373333 32.853333 0 45.226667l-162.133333 162.986667z" fill="currentColor" p-id="16308"></path></svg>