<?xml version="1.0" standalone="no"?><!DOCTYPE svg PUBLIC "-//W3C//DTD SVG 1.1//EN" "http://www.w3.org/Graphics/SVG/1.1/DTD/svg11.dtd"><svg t="1765846709845" class="icon" viewBox="0 0 1024 1024" version="1.1" xmlns="http://www.w3.org/2000/svg" p-id="7540" width="256" height="256" xmlns:xlink="http://www.w3.org/1999/xlink"><path d="M823.138462 764.061538c133.907692-161.476923 122.092308-322.953846 122.092307-322.953846C945.230769 196.923077 752.246154 0 512 0S78.769231 196.923077 78.769231 441.107692c0 0-11.815385 161.476923 122.092307 322.953846C342.646154 937.353846 512 1024 512 1024s169.353846-86.646154 311.138462-259.938462zM512 571.076923c-78.769231 0-145.723077-66.953846-145.723077-145.723077C366.276923 342.646154 433.230769 275.692308 512 275.692308s145.723077 66.953846 145.723077 145.723077c0 82.707692-66.953846 149.661538-145.723077 149.661538z" fill="currentColor" p-id="7541"></path></svg>