<?xml version="1.0" standalone="no"?><!DOCTYPE svg PUBLIC "-//W3C//DTD SVG 1.1//EN" "http://www.w3.org/Graphics/SVG/1.1/DTD/svg11.dtd"><svg t="1762406609038" class="icon" viewBox="0 0 1024 1024" version="1.1" xmlns="http://www.w3.org/2000/svg" p-id="14323" xmlns:xlink="http://www.w3.org/1999/xlink" width="256" height="256"><path d="M752.387549 1024a117.258741 117.258741 0 0 1-56.647353-14.641359l-184.007992-101.018981-184.327672 100.763237a117.130869 117.130869 0 0 1-127.872128-9.590409 127.872128 127.872128 0 0 1-48.335665-123.524476l35.228772-213.482517L37.32661 511.232767a129.022977 129.022977 0 0 1-30.753247-129.470529 122.117882 122.117882 0 0 1 98.013986-85.93007l206.065934-31.200799 92.131868-194.10989a119.368631 119.368631 0 0 1 217.766234 0l92.131868 194.10989 206.065934 31.200799a122.117882 122.117882 0 0 1 98.077922 85.93007 129.022977 129.022977 0 0 1-30.753247 129.470529l-149.098901 151.272728 35.164835 213.482517a127.872128 127.872128 0 0 1-48.271728 123.524476 118.153846 118.153846 0 0 1-71.480519 24.487512z m-240.655345-265.91009l232.407592 127.104895-44.435564-269.170829 188.035964-190.593407-259.772228-39.320679-116.235764-244.875125-116.171828 244.875125-259.836164 39.320679 188.035964 190.593407-44.435564 269.170829z" fill="currentColor" p-id="14324"></path></svg>