<?xml version="1.0" standalone="no"?><!DOCTYPE svg PUBLIC "-//W3C//DTD SVG 1.1//EN" "http://www.w3.org/Graphics/SVG/1.1/DTD/svg11.dtd"><svg t="1762260187380" class="icon" viewBox="0 0 1024 1024" version="1.1" xmlns="http://www.w3.org/2000/svg" p-id="14986" xmlns:xlink="http://www.w3.org/1999/xlink" width="200" height="200"><path d="M85.333333 383.744A255.573333 255.573333 0 0 1 341.333333 128h341.333334c141.354667 0 256 114.986667 256 255.744V853.333333a42.666667 42.666667 0 0 1-42.666667 42.666667H341.333333c-141.354667 0-256-114.986667-256-255.744V383.744zM853.333333 789.333333V383.744A170.837333 170.837333 0 0 0 682.666667 213.333333H341.333333a170.24 170.24 0 0 0-170.666666 170.410667v256.512A170.837333 170.837333 0 0 0 341.333333 810.666667h490.666667a21.333333 21.333333 0 0 0 21.333333-21.333334z m-218.282666-361.642666a64 64 0 1 1 0 128 64 64 0 0 1 0-128zM383.872 426.666667a64 64 0 1 1 0 128 64 64 0 0 1 0-128z" fill="currentColor" p-id="14987"></path></svg>