<?xml version="1.0" standalone="no"?><!DOCTYPE svg PUBLIC "-//W3C//DTD SVG 1.1//EN" "http://www.w3.org/Graphics/SVG/1.1/DTD/svg11.dtd"><svg t="1757729426686" class="icon" viewBox="0 0 1035 1024" version="1.1" xmlns="http://www.w3.org/2000/svg" p-id="7107" xmlns:xlink="http://www.w3.org/1999/xlink" width="258.75" height="256"><path d="M887.151146 596.083324l-5.11862 25.593102h111.841858a25.593103 25.593103 0 0 0 25.593103-24.057516A511.862053 511.862053 0 0 0 393.460196 14.608031a509.046812 509.046812 0 0 0-383.89654 593.504051 502.392605 502.392605 0 0 0 252.347992 349.857713A499.321433 499.321433 0 0 0 486.363159 1024h28.664274a515.445088 515.445088 0 0 0 73.708136-5.374552 27.128689 27.128689 0 0 0 25.593103-30.711723 113.121514 113.121514 0 0 1 0-15.09993v-92.391101l-25.593103 4.86269a401.811712 401.811712 0 0 1-73.964067 6.910137A383.89654 383.89654 0 0 1 132.410549 521.351464 380.569437 380.569437 0 0 1 513.491847 131.056648h9.213517a365.981368 365.981368 0 0 1 277.685164 129.245169 377.242333 377.242333 0 0 1 86.760618 335.781507z" fill="currentColor" p-id="7108"></path><path d="M765.072046 826.421247c0-21.242275-8.957586-30.199861-30.455792-30.199861h-23.289723a25.593103 25.593103 0 0 0-27.38462 27.640551v181.455098c0 4.606758 1.279655 5.886414 5.886414 5.630483h68.333584c5.886414 0 7.166069-1.791517 7.166068-7.166069v-90.343652c0-30.199861 0-58.096343-0.255931-87.01655zM873.586802 691.289665h-26.872758a25.593103 25.593103 0 0 0-28.152413 28.152413v284.339371c0 5.374552 0 7.422 6.910138 7.166069h67.053929c5.630483 0 6.910138-1.535586 6.910137-7.166069V860.204143v-143.833237a23.801585 23.801585 0 0 0-25.849033-25.081241zM1034.823348 955.154554v-48.115033a30.199861 30.199861 0 0 0-30.199861-29.687999h-20.474482a28.408344 28.408344 0 0 0-30.455792 30.455792v96.997859c0 4.86269 0 6.654207 6.142345 6.398276h68.589515c5.630483 0 6.398276-2.047448 6.398275-6.910138-0.255931-16.635517 0-33.015102 0-49.138757zM488.922469 303.042298a48.626895 48.626895 0 0 0-48.626895 48.370964v209.095649a30.455792 30.455792 0 0 0 30.455792 30.455792h209.095649a48.626895 48.626895 0 0 0 0-97.25379H537.549364v-142.297651a48.626895 48.626895 0 0 0-48.626895-48.370964z" fill="currentColor" p-id="7109"></path></svg>