<?xml version="1.0" standalone="no"?><!DOCTYPE svg PUBLIC "-//W3C//DTD SVG 1.1//EN" "http://www.w3.org/Graphics/SVG/1.1/DTD/svg11.dtd"><svg t="1762434534117" class="icon" viewBox="0 0 1024 1024" version="1.1" xmlns="http://www.w3.org/2000/svg" p-id="10324" width="256" height="256" xmlns:xlink="http://www.w3.org/1999/xlink"><path d="M100.4544 512m-80.0256 0a80.0256 80.0256 0 1 0 160.0512 0 80.0256 80.0256 0 1 0-160.0512 0Z" fill="#C1C1C1" p-id="10325"></path><path d="M382.3616 512m-79.9744 0a79.9744 79.9744 0 1 0 159.9488 0 79.9744 79.9744 0 1 0-159.9488 0Z" fill="#C1C1C1" p-id="10326"></path><path d="M656.6912 512m-80.0256 0a80.0256 80.0256 0 1 0 160.0512 0 80.0256 80.0256 0 1 0-160.0512 0Z" fill="#C1C1C1" p-id="10327"></path><path d="M930.9696 512m-80.0256 0a80.0256 80.0256 0 1 0 160.0512 0 80.0256 80.0256 0 1 0-160.0512 0Z" fill="currentColor" p-id="10328"></path></svg>