<?xml version="1.0" standalone="no"?><!DOCTYPE svg PUBLIC "-//W3C//DTD SVG 1.1//EN" "http://www.w3.org/Graphics/SVG/1.1/DTD/svg11.dtd"><svg t="1757729502934" class="icon" viewBox="0 0 1025 1024" version="1.1" xmlns="http://www.w3.org/2000/svg" p-id="9019" xmlns:xlink="http://www.w3.org/1999/xlink" width="256.25" height="256"><path d="M877.857143 0h-731.428572C66 0 0.142857 65.857143 0.142857 146.285714v731.428572c0 80.428571 65.857143 146.285714 146.285714 146.285714h731.428572c80.428571 0 146.285714-65.857143 146.285714-146.285714V146.285714C1024.142857 65.857143 958.285714 0 877.857143 0zM292.714286 841.142857c0 20.142857-16.428571 36.571429-36.571429 36.571429h-73.142857c-20.142857 0-36.571429-16.428571-36.571429-36.571429v-365.714286c0-20.142857 16.428571-36.571429 36.571429-36.571428h73.142857c20.142857 0 36.571429 16.428571 36.571429 36.571428v365.714286z m293.285714 0c0 20.142857-16.428571 36.571429-36.571429 36.571429h-73.142857c-20.142857 0-36.571429-16.428571-36.571428-36.571429V329.142857c0-20.142857 16.428571-36.571429 36.571428-36.571428h73.142857c20.142857 0 36.571429 16.428571 36.571429 36.571428v512z m291.857143 0c0 20.142857-16.428571 36.571429-36.571429 36.571429h-73.142857c-20.142857 0-36.571429-16.428571-36.571428-36.571429V402.285714c0-20.142857 16.428571-36.571429 36.571428-36.571428h73.142857c20.142857 0 36.571429 16.428571 36.571429 36.571428v438.857143z m0 0" p-id="9020" fill="currentColor"></path></svg>