<?xml version="1.0" standalone="no"?><!DOCTYPE svg PUBLIC "-//W3C//DTD SVG 1.1//EN" "http://www.w3.org/Graphics/SVG/1.1/DTD/svg11.dtd"><svg t="1757729691232" class="icon" viewBox="0 0 1024 1024" version="1.1" xmlns="http://www.w3.org/2000/svg" p-id="13905" xmlns:xlink="http://www.w3.org/1999/xlink" width="256" height="256"><path d="M505.626556 27.618257C234.589477 27.618257 14.871369 247.336365 14.871369 518.373444S234.589477 1009.128631 505.626556 1009.128631 996.381743 789.410523 996.381743 518.373444 776.663635 27.618257 505.626556 27.618257z m9.691884 731.722357c-188.29278 0-340.936763-234.253809-340.936764-234.253809s152.643983-234.241062 340.936764-234.241062c188.301278 0 340.941012 234.241062 340.941012 234.241062s-152.635485 234.253809-340.941012 234.253809z" p-id="13906" fill="currentColor"></path><path d="M527.049826 528.566705m-129.444648 0a129.444647 129.444647 0 1 0 258.889295 0 129.444647 129.444647 0 1 0-258.889295 0Z" p-id="13907" fill="currentColor"></path></svg>